<?xml version="1.0" encoding="UTF-8"?>
<svg width="1020.5" height="1398.4" version="1.1" viewBox="0 0 1020.5 1398.4" xml:space="preserve" xmlns="http://www.w3.org/2000/svg" xmlns:cc="http://creativecommons.org/ns#" xmlns:dc="http://purl.org/dc/elements/1.1/" xmlns:rdf="http://www.w3.org/1999/02/22-rdf-syntax-ns#"><metadata><rdf:RDF><cc:Work rdf:about=""><dc:format>image/svg+xml</dc:format><dc:type rdf:resource="http://purl.org/dc/dcmitype/StillImage"/><dc:title/></cc:Work></rdf:RDF></metadata><defs><clipPath id="clipPath704"><path d="M 0,1048.819 H 765.354 V 0 H 0 Z"/></clipPath><clipPath id="clipPath720"><path d="m523.85 491.56c-55.384-8.421-69.37-22.823-164.66-49.654-38.522-10.847-70.901-19.842-114.51-26.213-50.518-7.38-93.098-7.875-122.79-6.898v-104.16c24.122-3.685 61.414-7.336 106.23-2.761 42.788 4.37 59.537 12.879 156.59 42.769 109.81 33.821 140.47 38.975 169 41.39 38 3.215 69.398 1.336 89.677-0.69v106.23c-22.266 3.18-42.561 4.393-60.689 4.393-23.33 0-43.073-2.006-58.853-4.406"/></clipPath><linearGradient id="linearGradient734" x2="1" gradientTransform="matrix(521.5 0 0 -521.5 121.89 397.85)" gradientUnits="userSpaceOnUse"><stop stop-color="#8c152b" offset="0"/><stop stop-color="#8c152b" offset=".00047742"/><stop stop-color="#c11c28" offset=".29657"/><stop stop-color="#c81d27" offset="1"/></linearGradient><clipPath id="clipPath744"><path d="M 0,1048.819 H 765.354 V 0 H 0 Z"/></clipPath><clipPath id="clipPath756"><path d="m79.286 357.92c5.251-8.77 10.572-16.987 15.866-24.662-4.526-3.051-9.752-6.186-15.693-9.14-10.336-5.139-20.001-8.324-28.109-10.347 9.364-8.128 24.978-19.543 46.907-26.903 34.559-11.597 64.576-6.332 77.949-3.104-19.704 3.293-39.41 6.587-59.114 9.88-0.07 25.852-0.14 51.703-0.21 77.554-10.958 3.505-24.48 8.988-38.803 17.764-9.612 5.889-17.624 12.061-24.143 17.762 6.813-15.304 15.137-31.746 25.35-48.804"/></clipPath><linearGradient id="linearGradient770" x2="1" gradientTransform="matrix(124.86 0 0 -124.86 51.349 343.23)" gradientUnits="userSpaceOnUse"><stop stop-color="#8c152b" offset="0"/><stop stop-color="#8c152b" offset=".00047742"/><stop stop-color="#c11c28" offset=".29657"/><stop stop-color="#c81d27" offset="1"/></linearGradient><clipPath id="clipPath780"><path d="m648.16 379.7c-6.831 1.075-17.201 1.87-29.432-0.46-15.012-2.859-25.975-9.12-32.191-13.336 17.743-1.583 42.449-5.76 69.901-17.015 22.784-9.342 40.562-20.732 53.346-30.353-8.475 13.909-16.947 28.622-25.293 44.149-4.681 8.707-9.122 17.297-13.336 25.753 5.023 3.84 11.297 8.046 18.854 11.957 8.494 4.396 16.393 7.275 22.994 9.197-21.615 11.804-43.229 23.608-64.843 35.411z"/></clipPath><linearGradient id="linearGradient794" x2="1" gradientTransform="matrix(126.47 0 0 -126.47 586.53 381.77)" gradientUnits="userSpaceOnUse"><stop stop-color="#8c152b" offset="0"/><stop stop-color="#8c152b" offset=".00047742"/><stop stop-color="#c11c28" offset=".29657"/><stop stop-color="#c81d27" offset="1"/></linearGradient><clipPath id="clipPath804"><path d="M 0,1048.819 H 765.354 V 0 H 0 Z"/></clipPath></defs><g transform="matrix(1.3333 0 0 -1.3333 0 1398.4)"><g transform="translate(9)"><g transform="matrix(.67191 0 0 .67191 119.35 198.48)"><g clip-path="url(#clipPath704)"><g transform="translate(238.91 405.01)"><path d="m0 0c-12.021 7.604-21.722 18.723-29.107 33.366-7.389 14.639-12.021 32.07-13.9 52.295v0.242h48.144v-0.242c1.207-12.947 4.965-23.018 11.282-30.212 6.308-7.202 14.567-10.797 24.777-10.797 11.413 0 20.244 4.524 26.489 13.586 6.245 9.057 9.367 21.921 9.367 38.586v29.603c0 16.5-2.991 29.278-8.966 38.339-5.975 9.058-14.401 13.591-25.282 13.591-7.52 0-14.333-2.428-20.442-7.28-6.114-4.855-10.913-11.648-14.405-20.383h-44.517v194.37h153.29v-55.569h-105.15v-70.856c4.565 5.013 10.237 8.894 17.023 11.647 6.777 2.749 13.594 4.126 20.442 4.126 15.982 0 29.679-4.209 41.097-12.619 11.413-8.412 20.109-20.709 26.084-36.884 5.974-16.178 8.966-35.669 8.966-58.48v-29.603c0-22.811-3.325-42.308-9.972-58.481-6.646-16.18-16.287-28.515-28.908-37.008-12.625-8.494-27.796-12.736-45.526-12.736-15.175 0-28.773 3.797-40.79 11.401" fill="#1b2e58"/></g><g transform="translate(484.61 462.89)"><path d="m0 0c6.042 9.137 9.061 22.282 9.061 39.432v143.41c0 17.145-3.019 30.291-9.061 39.431-6.046 9.139-15.513 13.712-28.404 13.712-12.895 0-22.362-4.573-28.404-13.712-6.042-9.14-9.065-22.286-9.065-39.431v-143.41c0-17.15 3.023-30.295 9.065-39.432 6.042-9.141 15.509-13.709 28.404-13.709 12.891 0 22.358 4.568 28.404 13.709m-92.16-42.828c-14.575 17.63-21.857 42.22-21.857 73.766v160.4c0 31.705 7.318 56.335 21.957 73.89 14.635 17.551 35.856 26.328 63.656 26.328 27.931 0 49.181-8.736 63.756-26.207 14.567-17.471 21.853-42.143 21.853-74.011v-160.4c0-31.709-7.317-56.339-21.956-73.889-14.639-17.555-35.857-26.327-63.653-26.327-27.935 0-49.188 8.815-63.756 26.45" fill="#1b2e58"/></g></g><g clip-path="url(#clipPath720)"><path d="m523.85 491.56c-55.384-8.421-69.37-22.823-164.66-49.654-38.522-10.847-70.901-19.842-114.51-26.213-50.518-7.38-93.098-7.875-122.79-6.898v-104.16c24.122-3.685 61.414-7.336 106.23-2.761 42.788 4.37 59.537 12.879 156.59 42.769 109.81 33.821 140.47 38.975 169 41.39 38 3.215 69.398 1.336 89.677-0.69v106.23c-22.266 3.18-42.561 4.393-60.689 4.393-23.33 0-43.073-2.006-58.853-4.406" fill="url(#linearGradient734)"/></g><g clip-path="url(#clipPath744)"><g transform="translate(121.89 408.8)"><path d="m0 0v-104.16c24.121-3.685 61.414-7.336 106.23-2.76 42.788 4.369 59.537 12.878 156.59 42.769 109.81 33.82 140.47 38.974 169 41.389 38 3.216 69.399 1.336 89.677-0.69v106.23c-50.921 7.274-91.501 4.251-119.54-0.013-55.383-8.421-69.369-22.823-164.66-49.654-38.523-10.846-70.901-19.842-114.51-26.213-50.518-7.38-93.098-7.875-122.79-6.898z" fill="none" stroke="#fff" stroke-miterlimit="10" stroke-width=".75"/></g></g><g clip-path="url(#clipPath756)"><path d="m79.286 357.92c5.251-8.77 10.572-16.987 15.866-24.662-4.526-3.051-9.752-6.186-15.693-9.14-10.336-5.139-20.001-8.324-28.109-10.347 9.364-8.128 24.978-19.543 46.907-26.903 34.559-11.597 64.576-6.332 77.949-3.104-19.704 3.293-39.41 6.587-59.114 9.88-0.07 25.852-0.14 51.703-0.21 77.554-10.958 3.505-24.48 8.988-38.803 17.764-9.612 5.889-17.624 12.061-24.143 17.762 6.813-15.304 15.137-31.746 25.35-48.804" fill="url(#linearGradient770)"/></g><g clip-path="url(#clipPath780)"><path d="m648.16 379.7c-6.831 1.075-17.201 1.87-29.432-0.46-15.012-2.859-25.975-9.12-32.191-13.336 17.743-1.583 42.449-5.76 69.901-17.015 22.784-9.342 40.562-20.732 53.346-30.353-8.475 13.909-16.947 28.622-25.293 44.149-4.681 8.707-9.122 17.297-13.336 25.753 5.023 3.84 11.297 8.046 18.854 11.957 8.494 4.396 16.393 7.275 22.994 9.197-21.615 11.804-43.229 23.608-64.843 35.411z" fill="url(#linearGradient794)"/></g><g clip-path="url(#clipPath804)"><g transform="translate(269.43 353.38)"><path d="m0 0 8.918 2.327-11.027 23.933zm-11.64-33.105-2.874 11.039c1.084 0.654 1.755 1.555 2.014 2.71 0.248 1.154 0.295 2.898 0.153 5.225l-3.169 50.11 22.561 5.885 22.938-46.111c0.848-1.744 1.661-2.975 2.415-3.699 0.754-0.725 1.72-1.102 2.898-1.131l2.875-11.045-22.337-5.82-2.875 11.039c1.072 0.371 1.803 0.913 2.191 1.632 0.401 0.718 0.495 1.49 0.271 2.326-0.129 0.519-0.353 1.149-0.671 1.897l-1.272 2.568-12.677-3.304 0.083-2.604c0.094-0.836 0.212-1.525 0.353-2.073 0.271-1.061 0.766-1.791 1.484-2.192 0.719-0.394 1.685-0.447 2.899-0.165l2.886-11.038z" fill="#fff"/></g><g transform="translate(333.44 429)"><path d="m0 0 3.629 1.261c0.365-2.958 0.223-5.308-0.413-7.051-0.624-1.75-1.849-2.934-3.64-3.558-0.978-0.342-1.791-0.513-2.415-0.513l-3.24-0.182c-0.589-0.018-1.308-0.171-2.156-0.466-1.461-0.506-2.121-1.667-1.991-3.475l-3.699-1.29c-0.377 2.886-0.259 5.148 0.365 6.786 0.636 1.631 1.838 2.762 3.64 3.387 0.896 0.312 1.85 0.489 2.875 0.53l3.393 0.283c0.825 0.159 1.449 0.318 1.873 0.459 1.296 0.454 1.885 1.726 1.779 3.829m-5.902-88.547-3.747 10.774c1.343 0.66 2.05 1.526 2.121 2.604 0.059 1.072-0.306 2.751-1.096 5.024l-10.756 30.938c-0.613 1.737-1.272 2.951-1.979 3.628-0.707 0.683-1.779 0.931-3.228 0.742l-3.605 10.356 16.717 5.814 28.652-30.425-6.68 19.197c-0.742 2.133-1.508 3.6-2.309 4.407s-1.932 1.101-3.393 0.871l-3.605 10.356 20.334 7.075 3.605-10.356c-1.013-0.725-1.649-1.455-1.932-2.18-0.283-0.73-0.342-1.519-0.165-2.373 0.165-0.849 0.542-2.121 1.131-3.8l16.199-46.559-13.43-4.671-28.77 30.76 6.645-19.108c0.777-2.245 1.555-3.764 2.309-4.554 0.766-0.789 1.873-1.042 3.31-0.76l3.747-10.774z" fill="#fff"/></g><g transform="translate(399.27 412.47)"><path d="m0 0 6.444-22.355c0.955-3.34 2.192-5.619 3.688-6.844 1.496-1.22 3.499-1.473 6.008-0.749 2.509 0.725 4.053 2.003 4.618 3.841 0.578 1.832 0.377 4.406-0.577 7.717l-6.432 22.354c-0.955 3.281-2.145 5.549-3.582 6.804-1.449 1.255-3.44 1.514-5.985 0.783-2.544-0.73-4.111-2.014-4.712-3.84s-0.424-4.395 0.53-7.711m-14.844-4.83c-0.884 3.086-1.52 5.531-1.909 7.334-0.377 1.808-0.565 3.605-0.553 5.383 0.023 1.785 0.365 3.517 1.06 5.196 1.096 2.733 3.016 5.025 5.761 6.88 2.745 1.856 6.373 3.434 10.886 4.736 4.453 1.284 8.305 1.861 11.58 1.738 3.264-0.13 6.115-1.043 8.553-2.751 2.074-1.479 3.664-3.399 4.772-5.767 1.119-2.374 2.309-5.755 3.581-10.149l6.138-21.33c1.273-4.394 2.062-7.893 2.38-10.491 0.306-2.598-0.012-5.072-0.978-7.422-1.131-2.71-3.051-5.001-5.761-6.88-2.709-1.874-6.279-3.458-10.732-4.742-4.513-1.296-8.436-1.873-11.746-1.732-3.322 0.135-6.173 1.054-8.541 2.757-1.45 1.036-2.651 2.303-3.629 3.799-0.966 1.496-1.779 3.116-2.415 4.848s-1.402 4.153-2.297 7.269z" fill="#fff"/></g><g transform="translate(459.73 388.19)"><path d="m0 0-3.228 16.664 15.009 2.904 0.259-1.313c0.613-3.211 1.709-5.461 3.264-6.751s3.675-1.673 6.361-1.154c2.05 0.394 3.605 1.355 4.666 2.88 1.048 1.52 1.378 3.334 0.966 5.431-0.413 2.133-1.496 3.741-3.252 4.825-1.755 1.083-4.335 1.902-7.716 2.456-2.251 0.353-4.23 0.666-5.938 0.942-1.708 0.277-3.44 0.66-5.184 1.155-1.755 0.495-3.263 1.054-4.547 1.685-2.557 1.296-4.571 2.927-6.044 4.895-1.473 1.973-2.509 4.488-3.098 7.557-0.766 3.941-0.519 7.552 0.742 10.839 1.26 3.287 3.452 6.038 6.585 8.247 3.122 2.215 6.94 3.758 11.44 4.624 4.053 0.789 8.023 0.936 11.887 0.442 3.864-0.489 7.646-1.65 11.333-3.482l3.028-15.674-14.655-2.84-0.236 1.184c-0.554 2.893-1.579 4.96-3.063 6.203-1.485 1.243-3.429 1.632-5.82 1.166-2.227-0.43-3.888-1.343-4.96-2.733-1.084-1.39-1.449-3.004-1.096-4.842 0.271-1.396 0.943-2.492 2.003-3.287 1.061-0.795 2.533-1.414 4.418-1.867 1.897-0.454 4.442-0.896 7.646-1.337 4.724-0.66 8.506-1.555 11.345-2.68 2.828-1.131 5.113-2.816 6.833-5.06 1.72-2.239 2.946-5.284 3.7-9.131 0.801-4.141 0.6-7.964-0.578-11.463-1.19-3.499-3.31-6.444-6.362-8.83-3.051-2.391-6.868-4.035-11.451-4.918-4.229-0.825-8.435-0.955-12.594-0.407-4.17 0.554-8.058 1.773-11.663 3.67" fill="#fff"/></g></g></g></g><rect transform="scale(1,-1)" x="6.407" y="-711.68" width="755.67" height="331.99" rx="34.361" ry="34.361" fill="none" stroke-width="3.1725"/></g></svg>
