<svg id="visual" viewBox="0 0 900 450" width="900" height="450" xmlns="http://www.w3.org/2000/svg" xmlns:xlink="http://www.w3.org/1999/xlink" version="1.1"><path d="M0 347L129 373L257 388L386 368L514 374L643 359L771 348L900 374L900 451L771 451L643 451L514 451L386 451L257 451L129 451L0 451Z" fill="#07345e"></path><path d="M0 367L129 395L257 389L386 380L514 393L643 368L771 393L900 366L900 451L771 451L643 451L514 451L386 451L257 451L129 451L0 451Z" fill="#042d53"></path><path d="M0 394L129 385L257 398L386 402L514 386L643 387L771 389L900 394L900 451L771 451L643 451L514 451L386 451L257 451L129 451L0 451Z" fill="#022748"></path><path d="M0 403L129 410L257 402L386 403L514 411L643 417L771 407L900 419L900 451L771 451L643 451L514 451L386 451L257 451L129 451L0 451Z" fill="#01203d"></path><path d="M0 432L129 431L257 429L386 421L514 426L643 434L771 421L900 430L900 451L771 451L643 451L514 451L386 451L257 451L129 451L0 451Z" fill="#001a33"></path></svg>